<mxfile host="app.diagrams.net" agent="Mozilla/5.0 (Windows NT 10.0; Win64; x64) AppleWebKit/537.36 (KHTML, like Gecko) Chrome/133.0.0.0 Safari/537.36" version="26.1.0">
  <diagram name="Página-1" id="VL9zuHIssG0CE-3aUXxj">
    <mxGraphModel dx="3180" dy="1973" grid="1" gridSize="10" guides="1" tooltips="1" connect="1" arrows="1" fold="1" page="1" pageScale="1" pageWidth="827" pageHeight="1169" math="0" shadow="0">
      <root>
        <mxCell id="0" />
        <mxCell id="1" parent="0" />
        <mxCell id="NiIrTcc_1HtqgO93IiUI-19" value="" style="rounded=0;whiteSpace=wrap;html=1;" vertex="1" parent="1">
          <mxGeometry x="540" y="160" width="2880" height="1470" as="geometry" />
        </mxCell>
        <mxCell id="NiIrTcc_1HtqgO93IiUI-4" value="" style="rounded=0;whiteSpace=wrap;html=1;fillColor=#fa6800;fontColor=#000000;strokeColor=#C73500;" vertex="1" parent="1">
          <mxGeometry x="2068" y="710" width="172" height="60" as="geometry" />
        </mxCell>
        <mxCell id="NiIrTcc_1HtqgO93IiUI-5" value="" style="rounded=0;whiteSpace=wrap;html=1;fillColor=#fad7ac;strokeColor=#b46504;" vertex="1" parent="1">
          <mxGeometry x="540" y="160" width="2880" height="240" as="geometry" />
        </mxCell>
        <mxCell id="NiIrTcc_1HtqgO93IiUI-6" value="" style="rounded=0;whiteSpace=wrap;html=1;fillColor=#a0522d;fontColor=#ffffff;strokeColor=#6D1F00;" vertex="1" parent="1">
          <mxGeometry x="540" y="400" width="2880" height="60" as="geometry" />
        </mxCell>
        <mxCell id="NiIrTcc_1HtqgO93IiUI-9" value="&lt;font style=&quot;font-size: 43px;&quot;&gt;Texto de bienvenida&lt;/font&gt;" style="text;html=1;align=center;verticalAlign=middle;whiteSpace=wrap;rounded=0;" vertex="1" parent="1">
          <mxGeometry x="1680" y="530" width="600" height="90" as="geometry" />
        </mxCell>
        <mxCell id="NiIrTcc_1HtqgO93IiUI-10" value="&lt;font style=&quot;font-size: 43px;&quot;&gt;Descripcion breve&lt;/font&gt;" style="text;html=1;align=center;verticalAlign=middle;whiteSpace=wrap;rounded=0;" vertex="1" parent="1">
          <mxGeometry x="1650" y="620" width="600" height="90" as="geometry" />
        </mxCell>
        <mxCell id="NiIrTcc_1HtqgO93IiUI-11" value="" style="rounded=0;whiteSpace=wrap;html=1;" vertex="1" parent="1">
          <mxGeometry x="1720" y="710" width="340" height="60" as="geometry" />
        </mxCell>
        <mxCell id="NiIrTcc_1HtqgO93IiUI-12" value="" style="rounded=1;whiteSpace=wrap;html=1;" vertex="1" parent="1">
          <mxGeometry x="1450" y="930" width="350" height="500" as="geometry" />
        </mxCell>
        <mxCell id="NiIrTcc_1HtqgO93IiUI-13" value="" style="rounded=1;whiteSpace=wrap;html=1;" vertex="1" parent="1">
          <mxGeometry x="1810" y="930" width="350" height="500" as="geometry" />
        </mxCell>
        <mxCell id="NiIrTcc_1HtqgO93IiUI-14" value="" style="rounded=1;whiteSpace=wrap;html=1;" vertex="1" parent="1">
          <mxGeometry x="2170" y="930" width="350" height="500" as="geometry" />
        </mxCell>
        <mxCell id="NiIrTcc_1HtqgO93IiUI-15" value="&lt;font style=&quot;font-size: 41px;&quot;&gt;&lt;b&gt;Título&lt;/b&gt;&lt;/font&gt;" style="text;html=1;align=center;verticalAlign=middle;whiteSpace=wrap;rounded=0;" vertex="1" parent="1">
          <mxGeometry x="1730" y="830" width="490" height="59" as="geometry" />
        </mxCell>
        <mxCell id="NiIrTcc_1HtqgO93IiUI-17" value="" style="rounded=0;whiteSpace=wrap;html=1;fillColor=light-dark(#000000, #6db2ff);fontColor=#ffffff;strokeColor=#001DBC;" vertex="1" parent="1">
          <mxGeometry x="540" y="1520" width="2880" height="110" as="geometry" />
        </mxCell>
        <mxCell id="NiIrTcc_1HtqgO93IiUI-18" value="" style="ellipse;whiteSpace=wrap;html=1;" vertex="1" parent="1">
          <mxGeometry x="1910" y="210" width="160" height="140" as="geometry" />
        </mxCell>
      </root>
    </mxGraphModel>
  </diagram>
</mxfile>
